<svg width="169" height="410" viewBox="0 0 169 410" fill="none" xmlns="http://www.w3.org/2000/svg">
<path d="M307.632 61.5447C338.201 84.7902 354.316 145.952 358.812 175.002C358.958 175.943 359.257 176.806 359.74 177.65C377.068 207.926 410 267.09 408.595 271.211C406.814 276.433 260.775 392.588 246.578 405.763C232.382 418.938 119.526 376.254 54.4686 314.213C-10.5885 252.173 4.91229 167.477 1.97112 152.577C-0.970034 137.677 18.074 92.5157 25.6727 74.3427C33.2714 56.1696 71.9314 32.6903 78.9808 24.8597C86.0302 17.0292 145.301 -11.8265 207.848 8.88246C270.394 29.5914 268.798 32.0141 307.632 61.5447Z" fill="black" stroke="black" stroke-width="3"/>
</svg>