<svg width="509" height="372" viewBox="0 0 509 372" fill="none" xmlns="http://www.w3.org/2000/svg">
<path d="M360.5 36.2087C354.046 55.9192 343.843 67.7178 336.616 73.4364C333.495 75.9067 331.145 79.5748 331.485 83.5411C335.125 125.962 363.08 147.765 381.05 155.304C384.295 156.665 387.997 155.744 391.167 154.214C398.1 150.867 411.441 147.174 432.241 147.771C466.751 148.762 505.881 129.618 502.387 98.9042C498.893 68.1908 477.023 26.2298 437.695 9.95877C398.367 -6.31231 370.972 4.22432 360.5 36.2087Z" fill="black" stroke="black" stroke-width="3"/>
<path d="M68.9235 151.855L71.1013 157.817C72.126 160.622 71.8376 163.727 70.3731 166.33C52.2422 198.557 35.3823 244.028 28.5937 264.645C28.3114 265.503 28.1569 266.375 28.1171 267.277L24.0611 359.125C23.8055 364.913 28.5073 369.707 34.2997 369.563L465.343 358.854C471.498 358.701 476.057 353.083 474.985 347.021C469.457 315.752 460.413 259.269 456.428 214.623C450.751 151.008 391.163 102.592 349.723 70.049C308.284 37.5063 204.593 55.4824 171.382 65.5475C150.472 71.8846 137.346 72.5595 130.908 71.8034C128.425 71.5117 125.807 71.3731 123.558 72.464C100.244 83.7694 78.6476 122.79 69.1026 144.647C68.1026 146.937 68.0662 149.508 68.9235 151.855Z" fill="white" stroke="black" stroke-width="3"/>
<path d="M117.951 45.007C119.121 50.4275 121.772 58.394 124.209 65.1405C126.148 70.5085 123.389 76.644 118.869 80.1292C101.438 93.5707 81.7682 126.097 71.8639 145.129C70.8463 147.085 69.2197 148.679 67.0256 148.891C62.2069 149.358 52.9778 148.499 38.7838 143.07C15.3435 134.105 -21.3063 88.1988 22.0665 47.389C65.4392 6.57929 115.636 34.2844 117.951 45.007Z" fill="black" stroke="black" stroke-width="3"/>
</svg>