<svg width="18" height="19" viewBox="0 0 18 19" fill="none" xmlns="http://www.w3.org/2000/svg">
<mask id="mask0_255_1548" style="mask-type:alpha" maskUnits="userSpaceOnUse" x="0" y="0" width="18" height="19">
<rect y="0.5" width="18" height="18" fill="#D9D9D9"/>
</mask>
<g mask="url(#mask0_255_1548)">
<path d="M2.58663 9.50613L9.56341 16.4829C9.80071 16.7202 9.91541 16.9971 9.9075 17.3135C9.89959 17.6299 9.77698 17.9067 9.53968 18.144C9.30237 18.3813 9.02552 18.5 8.70911 18.5C8.3927 18.5 8.11584 18.3813 7.87854 18.144L0.569533 10.8588C0.379689 10.6689 0.237305 10.4553 0.142383 10.218C0.0474611 9.98074 0 9.74343 0 9.50613C0 9.26882 0.0474611 9.03151 0.142383 8.79421C0.237305 8.5569 0.379689 8.34333 0.569533 8.15348L7.87854 0.844476C8.11584 0.60717 8.39666 0.492473 8.72097 0.500383C9.04529 0.508293 9.3261 0.630901 9.56341 0.868206C9.80071 1.10551 9.91937 1.38237 9.91937 1.69878C9.91937 2.01518 9.80071 2.29204 9.56341 2.52934L2.58663 9.50613Z" fill="white"/>
</g>
</svg>
