<svg width="26" height="27" viewBox="0 0 26 27" fill="none" xmlns="http://www.w3.org/2000/svg">
<path fill-rule="evenodd" clip-rule="evenodd" d="M4.8147 18.9167C4.8147 18.3184 5.29972 17.8333 5.89803 17.8333H21.6665C22.2649 17.8333 22.7499 18.3184 22.7499 18.9167C22.7499 19.515 22.2649 20 21.6665 20H5.89803C5.29972 20 4.8147 19.515 4.8147 18.9167ZM4.8147 13.5C4.8147 12.9017 5.29972 12.4167 5.89803 12.4167H21.6665C22.2649 12.4167 22.7499 12.9017 22.7499 13.5C22.7499 14.0983 22.2649 14.5833 21.6665 14.5833H5.89803C5.29972 14.5833 4.8147 14.0983 4.8147 13.5ZM4.8147 8.08333C4.8147 7.48502 5.29972 7 5.89803 7H21.6665C22.2649 7 22.7499 7.48502 22.7499 8.08333C22.7499 8.68164 22.2649 9.16667 21.6665 9.16667H5.89803C5.29972 9.16667 4.8147 8.68164 4.8147 8.08333Z" fill="white"/>
</svg>
