<svg width="12" height="12" viewBox="0 0 12 12" fill="none" xmlns="http://www.w3.org/2000/svg">
<mask id="mask0_255_1573" style="mask-type:alpha" maskUnits="userSpaceOnUse" x="0" y="0" width="12" height="12">
<rect width="12" height="12" transform="matrix(-1 0 0 1 12 0)" fill="#D9D9D9"/>
</mask>
<g mask="url(#mask0_255_1573)">
<path d="M10.2756 6.00408L5.62439 10.6553C5.46619 10.8135 5.38973 10.998 5.395 11.209C5.40027 11.4199 5.48201 11.6045 5.64021 11.7627C5.79842 11.9209 5.98299 12 6.19393 12C6.40487 12 6.58944 11.9209 6.74764 11.7627L11.6203 6.90584C11.7469 6.77928 11.8418 6.6369 11.9051 6.47869C11.9684 6.32049 12 6.16229 12 6.00408C12 5.84588 11.9684 5.68768 11.9051 5.52947C11.8418 5.37127 11.7469 5.22889 11.6203 5.10232L6.74764 0.22965C6.58944 0.0714468 6.40223 -0.00501829 6.18602 0.000255167C5.96981 0.00552862 5.7826 0.0872672 5.62439 0.245471C5.46619 0.403674 5.38709 0.588245 5.38709 0.799183C5.38709 1.01012 5.46619 1.19469 5.62439 1.3529L10.2756 6.00408Z" fill="white"/>
</g>
</svg>
