<svg width="48" height="48" viewBox="0 0 48 48" fill="none" xmlns="http://www.w3.org/2000/svg">
<g filter="url(#filter0_b_652_7705)">
<rect width="48" height="48" rx="24" fill="#969696" fill-opacity="0.2"/>
<mask id="mask0_652_7705" style="mask-type:alpha" maskUnits="userSpaceOnUse" x="0" y="0" width="48" height="48">
<rect width="48" height="48" fill="#ABB0BC"/>
</mask>
<g mask="url(#mask0_652_7705)">
<path d="M13.9972 36C13.448 36 12.9778 35.8042 12.5867 35.4125C12.1956 35.0208 12 34.55 12 34V14C12 13.45 12.1956 12.9792 12.5867 12.5875C12.9778 12.1958 13.448 12 13.9972 12H26.613C26.896 12 27.1331 12.0964 27.3246 12.2892C27.516 12.482 27.6117 12.7209 27.6117 13.0058C27.6117 13.2908 27.516 13.5278 27.3246 13.7167C27.1331 13.9056 26.896 14 26.613 14H13.9972V34H33.9695V21.4C33.9695 21.1167 34.0657 20.8792 34.2583 20.6875C34.4508 20.4958 34.6893 20.4 34.9739 20.4C35.2585 20.4 35.4951 20.4958 35.6838 20.6875C35.8724 20.8792 35.9667 21.1167 35.9667 21.4V34C35.9667 34.55 35.7712 35.0208 35.38 35.4125C34.9889 35.8042 34.5187 36 33.9695 36H13.9972ZM31.3065 16.7H29.6089C29.3259 16.7 29.0888 16.6036 28.8974 16.4108C28.706 16.218 28.6103 15.9791 28.6103 15.6942C28.6103 15.4092 28.706 15.1722 28.8974 14.9833C29.0888 14.7944 29.3259 14.7 29.6089 14.7H31.3065V13C31.3065 12.7167 31.4028 12.4792 31.5953 12.2875C31.7878 12.0958 32.0264 12 32.311 12C32.5956 12 32.8322 12.0958 33.0208 12.2875C33.2094 12.4792 33.3037 12.7167 33.3037 13V14.7H35.0014C35.2843 14.7 35.5215 14.7964 35.7129 14.9892C35.9043 15.182 36 15.4209 36 15.7058C36 15.9908 35.9043 16.2278 35.7129 16.4167C35.5215 16.6056 35.2843 16.7 35.0014 16.7H33.3037V18.4C33.3037 18.6833 33.2075 18.9208 33.015 19.1125C32.8224 19.3042 32.5839 19.4 32.2993 19.4C32.0147 19.4 31.7781 19.3042 31.5895 19.1125C31.4008 18.9208 31.3065 18.6833 31.3065 18.4V16.7ZM22.9515 29.7667L20.2219 26.1667C20.111 26.0333 19.9778 25.9667 19.8225 25.9667C19.6671 25.9667 19.534 26.0333 19.423 26.1667L16.6269 29.8C16.4938 29.9778 16.4771 30.1556 16.577 30.3333C16.6768 30.5111 16.8266 30.6 17.0264 30.6H30.9736C31.1623 30.6 31.3037 30.5111 31.3981 30.3333C31.4924 30.1556 31.4841 29.9778 31.3731 29.8L27.5784 24.7333C27.4674 24.6 27.3343 24.5333 27.1789 24.5333C27.0236 24.5333 26.8904 24.6 26.7795 24.7333L22.9515 29.7667Z" fill="#969696"/>
</g>
</g>
<defs>
<filter id="filter0_b_652_7705" x="-4" y="-4" width="56" height="56" filterUnits="userSpaceOnUse" color-interpolation-filters="sRGB">
<feFlood flood-opacity="0" result="BackgroundImageFix"/>
<feGaussianBlur in="BackgroundImageFix" stdDeviation="2"/>
<feComposite in2="SourceAlpha" operator="in" result="effect1_backgroundBlur_652_7705"/>
<feBlend mode="normal" in="SourceGraphic" in2="effect1_backgroundBlur_652_7705" result="shape"/>
</filter>
</defs>
</svg>
