<svg width="475" height="741" viewBox="0 0 475 741" fill="none" xmlns="http://www.w3.org/2000/svg">
<path fill-rule="evenodd" clip-rule="evenodd" d="M451.405 68.6661H474.024V89.9081H0V68.6661H23.0535C27.2234 61.3058 32.8713 55.0012 38.9089 49.7594C51.3948 38.9191 68.3678 30.0058 87.7855 22.8752C126.816 8.54262 179.649 0 237.229 0C294.809 0 347.643 8.54262 386.673 22.8752C406.09 30.0058 423.063 38.9191 435.549 49.7594C441.587 55.0012 447.235 61.3058 451.405 68.6661ZM45.9939 68.6661C74.7173 40.1153 149.5 19.76 237.229 19.76C324.958 19.76 399.741 40.1153 428.464 68.6661H45.9939Z" fill="#AC2B29"/>
<path fill-rule="evenodd" clip-rule="evenodd" d="M441.032 94.8479C441.033 94.7655 441.033 94.6831 441.033 94.6007C441.033 53.2672 349.787 19.7598 237.229 19.7598C124.671 19.7598 33.4248 53.2672 33.4248 94.6007C33.4248 94.6831 33.4252 94.7655 33.4259 94.8479H33.4249V741H441.033V94.8479H441.032Z" fill="#C43E3C"/>
<rect x="84.0239" y="141" width="306" height="45" rx="14" fill="#812421" fill-opacity="0.8"/>
<rect x="23.0239" y="207" width="428" height="9" fill="#912725" fill-opacity="0.5"/>
<rect x="23.0239" y="259" width="428" height="9" fill="#912725" fill-opacity="0.5"/>
<rect x="65.0239" y="298" width="344" height="329" rx="31" fill="#C43E3C" stroke="#AC2B29" stroke-width="10"/>
<mask id="mask0_587_5088" style="mask-type:alpha" maskUnits="userSpaceOnUse" x="69" y="112" width="336" height="49">
<path fill-rule="evenodd" clip-rule="evenodd" d="M99.4759 112L99.3755 112C82.6128 112 69.0239 133.511 69.0239 160.046C69.0239 160.118 69.024 160.19 69.0242 160.262H404.613C404.614 160.19 404.614 160.118 404.614 160.046C404.614 133.511 391.025 112 374.262 112L374.162 112L361.522 112L236.819 112L112.117 112L99.4759 112V112Z" fill="#DA8D70"/>
</mask>
<g mask="url(#mask0_587_5088)">
<path fill-rule="evenodd" clip-rule="evenodd" d="M99.4759 112L99.3755 112C82.6128 112 69.0239 133.511 69.0239 160.046C69.0239 160.118 69.024 160.19 69.0242 160.262H404.613C404.614 160.19 404.614 160.118 404.614 160.046C404.614 133.511 391.025 112 374.262 112L374.162 112L361.522 112L236.819 112L112.117 112L99.4759 112V112Z" fill="#D16B50"/>
<path fill-rule="evenodd" clip-rule="evenodd" d="M396.748 126.653L396.865 126.652C416.384 126.652 432.208 148.163 432.208 174.698C432.208 174.77 432.208 174.841 432.207 174.913H41.4305C41.4303 174.841 41.4302 174.77 41.4302 174.698C41.4302 148.163 57.2537 126.652 76.7731 126.652L76.8898 126.653V126.652L91.6091 126.652L277.769 126.652L382.029 126.652L396.748 126.652V126.653Z" fill="#DA8D70"/>
<path fill-rule="evenodd" clip-rule="evenodd" d="M76.8898 134.838L76.7731 134.838C57.2537 134.838 41.4302 156.349 41.4302 182.884C41.4302 182.956 41.4303 183.028 41.4305 183.1H432.208C432.208 183.028 432.208 182.956 432.208 182.884C432.208 156.349 416.384 134.838 396.865 134.838L396.748 134.838V134.838L91.6094 134.838V134.838L76.8898 134.838V134.838Z" fill="#D16B50"/>
<path fill-rule="evenodd" clip-rule="evenodd" d="M76.8898 149.059L76.7731 149.059C57.2537 149.059 41.4302 170.569 41.4302 197.104C41.4302 197.176 41.4303 197.248 41.4305 197.319H432.207C432.207 197.248 432.207 197.176 432.207 197.105C432.207 170.57 416.384 149.059 396.865 149.059H396.748L382.029 149.059L204.431 149.059L91.6088 149.059L76.8898 149.059V149.059Z" fill="#DA8D70"/>
</g>
<g filter="url(#filter0_d_587_5088)">
<path d="M182.727 65V42.375H192.352C197.415 42.375 200.727 45.5625 200.727 50.3125C200.727 55.1562 197.321 58.1875 192.165 58.1875H188.665V65H182.727ZM188.665 53.5625H190.977C193.227 53.5625 194.508 52.3125 194.508 50.3125C194.508 48.3438 193.227 47.125 190.977 47.125H188.665V53.5625ZM216.54 42.375H222.477V56.9062C222.477 62.0312 218.571 65.2812 212.758 65.2812C206.946 65.2812 203.071 62.0312 203.071 56.9062V42.375H209.008V56.375C209.008 58.5625 210.571 60.125 212.758 60.125C214.977 60.125 216.54 58.5625 216.54 56.375V42.375ZM225.54 65V42.375H235.227C240.383 42.375 243.102 44.5938 243.102 48.0625C243.102 50.5625 241.321 52.4688 238.758 53V53.2188C241.602 53.3125 243.977 55.4062 243.977 58.625C243.977 62.3125 240.977 65 236.04 65H225.54ZM234.508 60.2188C236.633 60.2188 237.696 59.4062 237.696 57.875C237.696 56.2188 236.508 55.2812 234.602 55.2812H231.477V60.2188H234.508ZM234.133 51.5625C235.79 51.5625 236.977 50.75 236.977 49.3125C236.977 47.875 235.852 47.0625 234.227 47.0625H231.477V51.5625H234.133ZM251.852 65H245.415L252.946 42.375H261.04L268.54 65H262.133L260.79 60.5625H253.196L251.852 65ZM254.571 56.0625H259.415L257.071 48.4688H256.883L254.571 56.0625ZM291.477 53.6875C291.477 61.2188 286.665 65.3125 280.54 65.3125C274.352 65.3125 269.571 61.1875 269.571 53.6875C269.571 46.1562 274.352 42.0625 280.54 42.0625C286.665 42.0625 291.477 46.1562 291.477 53.6875ZM285.352 53.6875C285.352 49.5312 283.633 47.25 280.54 47.25C277.415 47.25 275.696 49.5312 275.696 53.6875C275.696 57.8438 277.415 60.125 280.54 60.125C283.633 60.125 285.352 57.8438 285.352 53.6875ZM157.899 94V71.375H167.524C172.586 71.375 175.899 74.5625 175.899 79.3125C175.899 84.1562 172.493 87.1875 167.336 87.1875H163.836V94H157.899ZM163.836 82.5625H166.149C168.399 82.5625 169.68 81.3125 169.68 79.3125C169.68 77.3438 168.399 76.125 166.149 76.125H163.836V82.5625ZM199.993 82.6875C199.993 90.2188 195.18 94.3125 189.055 94.3125C182.868 94.3125 178.086 90.1875 178.086 82.6875C178.086 75.1562 182.868 71.0625 189.055 71.0625C195.18 71.0625 199.993 75.1562 199.993 82.6875ZM193.868 82.6875C193.868 78.5312 192.149 76.25 189.055 76.25C185.93 76.25 184.211 78.5312 184.211 82.6875C184.211 86.8438 185.93 89.125 189.055 89.125C192.149 89.125 193.868 86.8438 193.868 82.6875ZM215.086 78.375C214.961 76.8438 213.961 75.9688 211.93 75.9688C209.961 75.9688 209.086 76.7188 209.055 77.7812C209.024 78.9375 210.086 79.5938 212.18 80.0312L214.055 80.4688C218.93 81.5 221.086 83.875 221.118 87.3438C221.086 91.7812 217.68 94.2812 211.961 94.2812C206.118 94.2812 202.336 91.7188 202.274 86.1562H207.961C208.055 88.25 209.524 89.375 211.868 89.375C213.899 89.375 214.993 88.5312 215.024 87.3438C214.993 86.25 214.086 85.625 211.555 85.0625L209.274 84.5625C205.305 83.6875 202.868 81.7188 202.868 78.2188C202.836 73.9375 206.618 71.0625 211.93 71.0625C217.368 71.0625 220.774 73.9688 220.805 78.375H215.086ZM222.899 76.1875V71.375H242.399V76.1875H235.586V94H229.711V76.1875H222.899ZM251.774 94V71.375H261.461C266.618 71.375 269.336 73.5938 269.336 77.0625C269.336 79.5625 267.555 81.4688 264.993 82V82.2188C267.836 82.3125 270.211 84.4062 270.211 87.625C270.211 91.3125 267.211 94 262.274 94H251.774ZM260.743 89.2188C262.868 89.2188 263.93 88.4062 263.93 86.875C263.93 85.2188 262.743 84.2812 260.836 84.2812H257.711V89.2188H260.743ZM260.368 80.5625C262.024 80.5625 263.211 79.75 263.211 78.3125C263.211 76.875 262.086 76.0625 260.461 76.0625H257.711V80.5625H260.368ZM294.243 82.6875C294.243 90.2188 289.43 94.3125 283.305 94.3125C277.118 94.3125 272.336 90.1875 272.336 82.6875C272.336 75.1562 277.118 71.0625 283.305 71.0625C289.43 71.0625 294.243 75.1562 294.243 82.6875ZM288.118 82.6875C288.118 78.5312 286.399 76.25 283.305 76.25C280.18 76.25 278.461 78.5312 278.461 82.6875C278.461 86.8438 280.18 89.125 283.305 89.125C286.399 89.125 288.118 86.8438 288.118 82.6875ZM301.993 71.375L305.805 78.125H305.993L309.868 71.375H316.524L309.743 82.6875L316.774 94H309.961L305.993 87.1562H305.805L301.868 94H295.086L302.055 82.6875L295.305 71.375H301.993Z" fill="white" fill-opacity="0.2" shape-rendering="crispEdges"/>
</g>
<defs>
<filter id="filter0_d_587_5088" x="141.899" y="26.0625" width="190.875" height="84.25" filterUnits="userSpaceOnUse" color-interpolation-filters="sRGB">
<feFlood flood-opacity="0" result="BackgroundImageFix"/>
<feColorMatrix in="SourceAlpha" type="matrix" values="0 0 0 0 0 0 0 0 0 0 0 0 0 0 0 0 0 0 127 0" result="hardAlpha"/>
<feOffset/>
<feGaussianBlur stdDeviation="8"/>
<feComposite in2="hardAlpha" operator="out"/>
<feColorMatrix type="matrix" values="0 0 0 0 0 0 0 0 0 0 0 0 0 0 0 0 0 0 0.12 0"/>
<feBlend mode="normal" in2="BackgroundImageFix" result="effect1_dropShadow_587_5088"/>
<feBlend mode="normal" in="SourceGraphic" in2="effect1_dropShadow_587_5088" result="shape"/>
</filter>
</defs>
</svg>
