<svg width="10" height="10" viewBox="0 0 10 10" fill="none" xmlns="http://www.w3.org/2000/svg">
<mask id="mask0_586_5816" style="mask-type:alpha" maskUnits="userSpaceOnUse" x="0" y="0" width="10" height="10">
<rect width="10" height="10" transform="matrix(-1 0 0 1 10 0)" fill="#D9D9D9"/>
</mask>
<g mask="url(#mask0_586_5816)">
<path d="M8.56298 5.0034L4.687 8.87939C4.55516 9.01123 4.49144 9.16504 4.49583 9.34082C4.50023 9.5166 4.56834 9.67041 4.70018 9.80225C4.83202 9.93408 4.98582 10 5.16161 10C5.33739 10 5.4912 9.93408 5.62303 9.80225L9.68359 5.75487C9.78906 5.6494 9.86816 5.53075 9.9209 5.39891C9.97363 5.26708 10 5.13524 10 5.0034C10 4.87157 9.97363 4.73973 9.9209 4.60789C9.86816 4.47606 9.78906 4.3574 9.68359 4.25194L5.62303 0.191375C5.4912 0.059539 5.33519 -0.00418191 5.15501 0.000212639C4.97484 0.00460718 4.81883 0.0727226 4.687 0.204559C4.55516 0.336395 4.48924 0.490204 4.48924 0.665986C4.48924 0.841768 4.55516 0.995577 4.687 1.12741L8.56298 5.0034Z" fill="white"/>
</g>
</svg>
