<svg width="24" height="25" viewBox="0 0 24 25" fill="none" xmlns="http://www.w3.org/2000/svg">
<mask id="mask0_465_3101" style="mask-type:alpha" maskUnits="userSpaceOnUse" x="0" y="0" width="24" height="25">
<rect y="0.5" width="24" height="24" fill="#D9D9D9"/>
</mask>
<g mask="url(#mask0_465_3101)">
<path d="M10.1251 22.5C9.87509 22.5 9.65843 22.4167 9.47509 22.25C9.29176 22.0833 9.18343 21.875 9.15009 21.625L8.85009 19.3C8.63343 19.2167 8.42926 19.1167 8.23759 19C8.04593 18.8833 7.85843 18.7583 7.67509 18.625L5.50009 19.525C5.26676 19.625 5.03343 19.6375 4.80009 19.5625C4.56676 19.4875 4.38343 19.3417 4.25009 19.125L2.40009 15.9C2.26676 15.6833 2.22509 15.45 2.27509 15.2C2.32509 14.95 2.45009 14.75 2.65009 14.6L4.52509 13.175C4.50843 13.0583 4.50009 12.9458 4.50009 12.8375V12.1625C4.50009 12.0542 4.50843 11.9417 4.52509 11.825L2.65009 10.4C2.45009 10.25 2.32509 10.05 2.27509 9.8C2.22509 9.55 2.26676 9.31667 2.40009 9.1L4.25009 5.875C4.38343 5.65833 4.56676 5.5125 4.80009 5.4375C5.03343 5.3625 5.26676 5.375 5.50009 5.475L7.67509 6.375C7.85843 6.24167 8.05009 6.11667 8.25009 6C8.45009 5.88333 8.65009 5.78333 8.85009 5.7L9.15009 3.375C9.18343 3.125 9.29176 2.91667 9.47509 2.75C9.65843 2.58333 9.87509 2.5 10.1251 2.5H13.8751C14.1251 2.5 14.3418 2.58333 14.5251 2.75C14.7084 2.91667 14.8168 3.125 14.8501 3.375L15.1501 5.7C15.3668 5.78333 15.5709 5.88333 15.7626 6C15.9543 6.11667 16.1418 6.24167 16.3251 6.375L18.5001 5.475C18.7334 5.375 18.9668 5.3625 19.2001 5.4375C19.4334 5.5125 19.6168 5.65833 19.7501 5.875L21.6001 9.1C21.7334 9.31667 21.7751 9.55 21.7251 9.8C21.6751 10.05 21.5501 10.25 21.3501 10.4L19.4751 11.825C19.4918 11.9417 19.5001 12.0542 19.5001 12.1625V12.8375C19.5001 12.9458 19.4834 13.0583 19.4501 13.175L21.3251 14.6C21.5251 14.75 21.6501 14.95 21.7001 15.2C21.7501 15.45 21.7084 15.6833 21.5751 15.9L19.7251 19.1C19.5918 19.3167 19.4043 19.4667 19.1626 19.55C18.9209 19.6333 18.6834 19.625 18.4501 19.525L16.3251 18.625C16.1418 18.7583 15.9501 18.8833 15.7501 19C15.5501 19.1167 15.3501 19.2167 15.1501 19.3L14.8501 21.625C14.8168 21.875 14.7084 22.0833 14.5251 22.25C14.3418 22.4167 14.1251 22.5 13.8751 22.5H10.1251ZM12.0501 16C13.0168 16 13.8418 15.6583 14.5251 14.975C15.2084 14.2917 15.5501 13.4667 15.5501 12.5C15.5501 11.5333 15.2084 10.7083 14.5251 10.025C13.8418 9.34167 13.0168 9 12.0501 9C11.0668 9 10.2376 9.34167 9.56259 10.025C8.88759 10.7083 8.55009 11.5333 8.55009 12.5C8.55009 13.4667 8.88759 14.2917 9.56259 14.975C10.2376 15.6583 11.0668 16 12.0501 16Z" fill="#1C1B1F"/>
</g>
</svg>
