<svg width="28" height="28" viewBox="0 0 28 28" fill="none" xmlns="http://www.w3.org/2000/svg">
<g filter="url(#filter0_d_588_7612)">
<mask id="mask0_588_7612" style="mask-type:alpha" maskUnits="userSpaceOnUse" x="2" y="2" width="24" height="24">
<rect x="2" y="2" width="24" height="24" fill="#D9D9D9"/>
</mask>
<g mask="url(#mask0_588_7612)">
<path d="M10.4 19L14 15.4L17.6 19L19 17.6L15.4 14L19 10.4L17.6 9L14 12.6L10.4 9L9 10.4L12.6 14L9 17.6L10.4 19ZM14 24C12.6167 24 11.3167 23.7375 10.1 23.2125C8.88333 22.6875 7.825 21.975 6.925 21.075C6.025 20.175 5.3125 19.1167 4.7875 17.9C4.2625 16.6833 4 15.3833 4 14C4 12.6167 4.2625 11.3167 4.7875 10.1C5.3125 8.88333 6.025 7.825 6.925 6.925C7.825 6.025 8.88333 5.3125 10.1 4.7875C11.3167 4.2625 12.6167 4 14 4C15.3833 4 16.6833 4.2625 17.9 4.7875C19.1167 5.3125 20.175 6.025 21.075 6.925C21.975 7.825 22.6875 8.88333 23.2125 10.1C23.7375 11.3167 24 12.6167 24 14C24 15.3833 23.7375 16.6833 23.2125 17.9C22.6875 19.1167 21.975 20.175 21.075 21.075C20.175 21.975 19.1167 22.6875 17.9 23.2125C16.6833 23.7375 15.3833 24 14 24Z" fill="black" fill-opacity="0.5"/>
</g>
</g>
<defs>
<filter id="filter0_d_588_7612" x="0" y="0" width="28" height="28" filterUnits="userSpaceOnUse" color-interpolation-filters="sRGB">
<feFlood flood-opacity="0" result="BackgroundImageFix"/>
<feColorMatrix in="SourceAlpha" type="matrix" values="0 0 0 0 0 0 0 0 0 0 0 0 0 0 0 0 0 0 127 0" result="hardAlpha"/>
<feOffset/>
<feGaussianBlur stdDeviation="2"/>
<feComposite in2="hardAlpha" operator="out"/>
<feColorMatrix type="matrix" values="0 0 0 0 1 0 0 0 0 1 0 0 0 0 1 0 0 0 0.25 0"/>
<feBlend mode="normal" in2="BackgroundImageFix" result="effect1_dropShadow_588_7612"/>
<feBlend mode="normal" in="SourceGraphic" in2="effect1_dropShadow_588_7612" result="shape"/>
</filter>
</defs>
</svg>
